<svg xmlns="http://www.w3.org/2000/svg" viewBox="-10 -30 413 892" width="413" height="892" role="img" aria-label="Sound introduction  ·  ios  ·  mid-fi"><text x="0" y="-10" font-family="-apple-system, Helvetica, Arial, sans-serif" font-size="13" fill="#111827" text-anchor="start" font-weight="600">Sound introduction  ·  ios  ·  mid-fi</text><rect x="0" y="0" width="393" height="852" rx="0" fill="white" stroke="#111827" stroke-width="1.2"/><rect x="0" y="0" width="393" height="47" rx="0" fill="#F3F4F6" stroke="#F3F4F6" stroke-width="1.2"/><text x="196.5" y="39" font-family="-apple-system, Helvetica, Arial, sans-serif" font-size="9" fill="#6B7280" text-anchor="middle" font-weight="normal">safe area</text><rect x="28" y="800.0" width="337" height="40.0" rx="10" fill="#2563EB" stroke="#2563EB" stroke-width="1.2"/><text x="196.5" y="825.0" font-family="-apple-system, Helvetica, Arial, sans-serif" font-size="14" fill="white" text-anchor="middle" font-weight="600">Continue (icon-only chevron)</text><text x="377" y="802.0" font-family="-apple-system, Helvetica, Arial, sans-serif" font-size="8" fill="#2563EB" text-anchor="end" font-weight="normal">FIXED</text><rect x="16" y="740.0" width="361" height="48.0" rx="0" fill="white" stroke="#6B7280" stroke-width="1.2"/><text x="106.25" y="768.0" font-family="-apple-system, Helvetica, Arial, sans-serif" font-size="12" fill="#111827" text-anchor="middle" font-weight="normal">Exit</text><text x="286.75" y="768.0" font-family="-apple-system, Helvetica, Arial, sans-serif" font-size="12" fill="#6B7280" text-anchor="middle" font-weight="normal">progress dots (position only, no percentage, no timer)</text><text x="377" y="750.0" font-family="-apple-system, Helvetica, Arial, sans-serif" font-size="8" fill="#2563EB" text-anchor="end" font-weight="normal">FIXED</text><rect x="10" y="47" width="373" height="693.0" fill="none" stroke="#2563EB" stroke-dasharray="4 4" opacity="0.6"/><text x="383" y="59" font-family="-apple-system, Helvetica, Arial, sans-serif" font-size="8" fill="#2563EB" text-anchor="end" font-weight="normal">scrolls ↓</text><rect x="28" y="67" width="72" height="72" rx="4" fill="#F3F4F6" stroke="#6B7280" stroke-width="1.2"/><line x1="28" y1="67" x2="100" y2="139" stroke="#6B7280"/><line x1="100" y1="67" x2="28" y2="139" stroke="#6B7280"/><text x="112" y="91" font-family="-apple-system, Helvetica, Arial, sans-serif" font-size="16" fill="#111827" text-anchor="start" font-weight="600">Grapheme at display size with the mouth-shape cue beside it</text><rect x="112" y="103" width="241" height="10" rx="4" fill="#F3F4F6" stroke="#F3F4F6" stroke-width="1.2"/><rect x="112" y="119" width="144.6" height="10" rx="4" fill="#F3F4F6" stroke="#F3F4F6" stroke-width="1.2"/><rect x="16" y="283.0" width="361" height="120.0" rx="8" fill="white" stroke="#6B7280" stroke-width="1.2"/><text x="30" y="309.0" font-family="-apple-system, Helvetica, Arial, sans-serif" font-size="13" fill="#111827" text-anchor="start" font-weight="600">Speaker button, primary. Tapping anywhere else also interrupts audio</text><rect x="30" y="323.0" width="216.6" height="10" rx="4" fill="#F3F4F6" stroke="#F3F4F6" stroke-width="1.2"/><rect x="30" y="339.0" width="144.4" height="10" rx="4" fill="#F3F4F6" stroke="#F3F4F6" stroke-width="1.2"/><rect x="16" y="411.0" width="361" height="72.0" rx="4" fill="#F3F4F6" stroke="#6B7280" stroke-width="1.2"/><text x="26" y="431.0" font-family="-apple-system, Helvetica, Arial, sans-serif" font-size="11" fill="#6B7280" text-anchor="start" font-weight="normal">TEXT: Example word, spoken and shown, using only graphemes already taught</text></svg>